<svg width="29" height="27" viewBox="0 0 29 27" fill="none" xmlns="http://www.w3.org/2000/svg">
<g id="Group 238650">
<g id="Group">
<path id="Vector" d="M9.05078 0.869141L11.8164 7.62824H28.9992V0.869141H9.05078ZM19.3924 5.11101H17.6932V3.41179H19.3924V5.11101ZM22.7908 5.11101H21.0916V3.41179H22.7908V5.11101ZM26.1893 5.11101H24.4901V3.41179H26.1893V5.11101Z" fill="black"/>
<path id="Vector_2" d="M7.21562 0.869141H0V26.0742H29V9.32745H10.6765L7.21562 0.869141ZM14.7749 13.9048L16.1887 12.9623L18.5019 16.4321L20.8151 12.9623L22.229 13.9048L19.5231 17.9637L22.229 22.0225L20.8151 22.9651L18.5019 19.4953L16.1887 22.9651L14.7749 22.0225L17.4808 17.9637L14.7749 13.9048ZM11.6907 19.6108V13.0071H13.39V19.6108C13.39 21.4357 11.9053 22.9203 10.0805 22.9203C8.25565 22.9203 6.77099 21.4357 6.77099 19.6108V13.0071H8.47021V19.6108C8.47021 20.4987 9.19255 21.2211 10.0804 21.2211C10.9683 21.2211 11.6907 20.4987 11.6907 19.6108Z" fill="black"/>
</g>
</g>
</svg>
